<mxfile host="app.diagrams.net" modified="2021-09-30T06:09:53.197Z" agent="5.0 (Windows NT 10.0; Win64; x64) AppleWebKit/537.36 (KHTML, like Gecko) Chrome/92.0.4515.159 Safari/537.36" etag="TX38qbFa8ni-mYCIj_Xt" version="15.3.1" type="github" pages="2">
  <diagram id="EJi81lrPLxUWqyqAcyIe" name="双写不一致情况">
    <mxGraphModel dx="1248" dy="686" grid="1" gridSize="10" guides="1" tooltips="1" connect="1" arrows="1" fold="1" page="1" pageScale="1" pageWidth="827" pageHeight="1169" math="0" shadow="0">
      <root>
        <mxCell id="0" />
        <mxCell id="1" parent="0" />
        <mxCell id="AaJ2Im61UXtHoCQsoIxq-1" value="" style="endArrow=classic;html=1;strokeWidth=2;" edge="1" parent="1">
          <mxGeometry width="50" height="50" relative="1" as="geometry">
            <mxPoint x="60" y="160" as="sourcePoint" />
            <mxPoint x="60" y="690" as="targetPoint" />
          </mxGeometry>
        </mxCell>
        <mxCell id="AaJ2Im61UXtHoCQsoIxq-2" value="执行时间轴" style="edgeLabel;html=1;align=center;verticalAlign=middle;resizable=0;points=[];fontStyle=1" vertex="1" connectable="0" parent="AaJ2Im61UXtHoCQsoIxq-1">
          <mxGeometry x="-0.2281" y="-3" relative="1" as="geometry">
            <mxPoint y="15" as="offset" />
          </mxGeometry>
        </mxCell>
        <mxCell id="AaJ2Im61UXtHoCQsoIxq-4" value="线程1" style="shape=umlLifeline;perimeter=lifelinePerimeter;whiteSpace=wrap;html=1;container=1;collapsible=0;recursiveResize=0;outlineConnect=0;fillColor=#66FF66;strokeWidth=2;" vertex="1" parent="1">
          <mxGeometry x="190" y="160" width="107.5" height="520" as="geometry" />
        </mxCell>
        <mxCell id="AaJ2Im61UXtHoCQsoIxq-6" value="写数据库" style="rounded=1;whiteSpace=wrap;html=1;fillColor=#CC99FF;strokeWidth=2;" vertex="1" parent="AaJ2Im61UXtHoCQsoIxq-4">
          <mxGeometry x="-5" y="120" width="110" height="40" as="geometry" />
        </mxCell>
        <mxCell id="AaJ2Im61UXtHoCQsoIxq-7" value="更新缓存" style="rounded=1;whiteSpace=wrap;html=1;fillColor=#CC6600;strokeWidth=2;" vertex="1" parent="AaJ2Im61UXtHoCQsoIxq-4">
          <mxGeometry x="-2.5" y="410" width="110" height="40" as="geometry" />
        </mxCell>
        <mxCell id="AaJ2Im61UXtHoCQsoIxq-5" value="线程2" style="shape=umlLifeline;perimeter=lifelinePerimeter;whiteSpace=wrap;html=1;container=1;collapsible=0;recursiveResize=0;outlineConnect=0;fillColor=#66FF66;strokeWidth=2;" vertex="1" parent="1">
          <mxGeometry x="440" y="160" width="110" height="520" as="geometry" />
        </mxCell>
        <mxCell id="AaJ2Im61UXtHoCQsoIxq-8" value="写数据库" style="rounded=1;whiteSpace=wrap;html=1;fillColor=#CC99FF;strokeWidth=2;" vertex="1" parent="AaJ2Im61UXtHoCQsoIxq-5">
          <mxGeometry y="200" width="110" height="40" as="geometry" />
        </mxCell>
        <mxCell id="AaJ2Im61UXtHoCQsoIxq-9" value="更新缓存" style="rounded=1;whiteSpace=wrap;html=1;fillColor=#CC6600;strokeWidth=2;" vertex="1" parent="AaJ2Im61UXtHoCQsoIxq-5">
          <mxGeometry y="280" width="110" height="40" as="geometry" />
        </mxCell>
        <mxCell id="xqRWkwGzWZ1tqUMwkJRG-3" value="" style="edgeStyle=orthogonalEdgeStyle;rounded=0;orthogonalLoop=1;jettySize=auto;html=1;strokeWidth=2;" edge="1" parent="1" source="xqRWkwGzWZ1tqUMwkJRG-1" target="xqRWkwGzWZ1tqUMwkJRG-2">
          <mxGeometry relative="1" as="geometry" />
        </mxCell>
        <mxCell id="xqRWkwGzWZ1tqUMwkJRG-1" value="线程1" style="ellipse;whiteSpace=wrap;html=1;strokeWidth=2;fillColor=#66FFFF;" vertex="1" parent="1">
          <mxGeometry x="70" y="930" width="100" height="60" as="geometry" />
        </mxCell>
        <mxCell id="xqRWkwGzWZ1tqUMwkJRG-5" value="" style="edgeStyle=orthogonalEdgeStyle;rounded=0;orthogonalLoop=1;jettySize=auto;html=1;strokeWidth=2;entryX=0;entryY=0.5;entryDx=0;entryDy=0;exitX=0.5;exitY=1;exitDx=0;exitDy=0;" edge="1" parent="1" source="xqRWkwGzWZ1tqUMwkJRG-2" target="xqRWkwGzWZ1tqUMwkJRG-4">
          <mxGeometry relative="1" as="geometry" />
        </mxCell>
        <mxCell id="xqRWkwGzWZ1tqUMwkJRG-2" value="写数据库&lt;br&gt;stock = 10" style="whiteSpace=wrap;html=1;strokeWidth=2;fillColor=#66B2FF;" vertex="1" parent="1">
          <mxGeometry x="60" y="1040" width="120" height="60" as="geometry" />
        </mxCell>
        <mxCell id="xqRWkwGzWZ1tqUMwkJRG-7" value="" style="edgeStyle=orthogonalEdgeStyle;rounded=0;orthogonalLoop=1;jettySize=auto;html=1;strokeWidth=2;" edge="1" parent="1" source="xqRWkwGzWZ1tqUMwkJRG-4" target="xqRWkwGzWZ1tqUMwkJRG-6">
          <mxGeometry relative="1" as="geometry" />
        </mxCell>
        <mxCell id="xqRWkwGzWZ1tqUMwkJRG-8" value="监听" style="edgeLabel;html=1;align=center;verticalAlign=middle;resizable=0;points=[];fontStyle=1" vertex="1" connectable="0" parent="xqRWkwGzWZ1tqUMwkJRG-7">
          <mxGeometry x="-0.2292" y="2" relative="1" as="geometry">
            <mxPoint as="offset" />
          </mxGeometry>
        </mxCell>
        <mxCell id="xqRWkwGzWZ1tqUMwkJRG-4" value="binlog" style="whiteSpace=wrap;html=1;strokeWidth=2;fillColor=#FFF4C3;" vertex="1" parent="1">
          <mxGeometry x="210" y="1160" width="120" height="40" as="geometry" />
        </mxCell>
        <mxCell id="xqRWkwGzWZ1tqUMwkJRG-10" value="" style="edgeStyle=orthogonalEdgeStyle;rounded=0;orthogonalLoop=1;jettySize=auto;html=1;strokeWidth=2;" edge="1" parent="1" source="xqRWkwGzWZ1tqUMwkJRG-6" target="xqRWkwGzWZ1tqUMwkJRG-9">
          <mxGeometry relative="1" as="geometry" />
        </mxCell>
        <mxCell id="xqRWkwGzWZ1tqUMwkJRG-6" value="Canal中间件" style="whiteSpace=wrap;html=1;strokeWidth=2;fillColor=#FF66B3;" vertex="1" parent="1">
          <mxGeometry x="414" y="1160" width="120" height="40" as="geometry" />
        </mxCell>
        <mxCell id="xqRWkwGzWZ1tqUMwkJRG-9" value="更新Redis缓存" style="whiteSpace=wrap;html=1;strokeWidth=2;fillColor=#66B2FF;" vertex="1" parent="1">
          <mxGeometry x="414" y="1040" width="120" height="40" as="geometry" />
        </mxCell>
      </root>
    </mxGraphModel>
  </diagram>
  <diagram id="OMLv4gzq3qGoAITEjv64" name="读写并发不一致">
    <mxGraphModel dx="1248" dy="686" grid="1" gridSize="10" guides="1" tooltips="1" connect="1" arrows="1" fold="1" page="1" pageScale="1" pageWidth="827" pageHeight="1169" math="0" shadow="0">
      <root>
        <mxCell id="6ijoCn3SMTlXJEN42yO7-0" />
        <mxCell id="6ijoCn3SMTlXJEN42yO7-1" parent="6ijoCn3SMTlXJEN42yO7-0" />
        <mxCell id="_4PScrkvI3SqUnbokafy-0" value="" style="endArrow=classic;html=1;strokeWidth=2;" edge="1" parent="6ijoCn3SMTlXJEN42yO7-1">
          <mxGeometry width="50" height="50" relative="1" as="geometry">
            <mxPoint x="40" y="120" as="sourcePoint" />
            <mxPoint x="40" y="650" as="targetPoint" />
          </mxGeometry>
        </mxCell>
        <mxCell id="_4PScrkvI3SqUnbokafy-1" value="执行时间轴" style="edgeLabel;html=1;align=center;verticalAlign=middle;resizable=0;points=[];fontStyle=1" vertex="1" connectable="0" parent="_4PScrkvI3SqUnbokafy-0">
          <mxGeometry x="-0.1334" y="-2" relative="1" as="geometry">
            <mxPoint as="offset" />
          </mxGeometry>
        </mxCell>
        <mxCell id="_4PScrkvI3SqUnbokafy-2" value="线程1" style="shape=umlLifeline;perimeter=lifelinePerimeter;whiteSpace=wrap;html=1;container=1;collapsible=0;recursiveResize=0;outlineConnect=0;strokeWidth=2;fillColor=#66FF66;" vertex="1" parent="6ijoCn3SMTlXJEN42yO7-1">
          <mxGeometry x="160" y="120" width="110" height="530" as="geometry" />
        </mxCell>
        <mxCell id="kmw4Is8DG7LzNqc9Qjcl-2" value="写数据库&lt;br&gt;stock = 10" style="rounded=0;whiteSpace=wrap;html=1;strokeWidth=2;fillColor=#CC99FF;" vertex="1" parent="_4PScrkvI3SqUnbokafy-2">
          <mxGeometry y="110" width="110" height="40" as="geometry" />
        </mxCell>
        <mxCell id="kmw4Is8DG7LzNqc9Qjcl-3" value="删除缓存" style="rounded=0;whiteSpace=wrap;html=1;strokeWidth=2;fillColor=#CC99FF;" vertex="1" parent="_4PScrkvI3SqUnbokafy-2">
          <mxGeometry y="200" width="110" height="40" as="geometry" />
        </mxCell>
        <mxCell id="kmw4Is8DG7LzNqc9Qjcl-0" value="线程2" style="shape=umlLifeline;perimeter=lifelinePerimeter;whiteSpace=wrap;html=1;container=1;collapsible=0;recursiveResize=0;outlineConnect=0;strokeWidth=2;fillColor=#66FF66;" vertex="1" parent="6ijoCn3SMTlXJEN42yO7-1">
          <mxGeometry x="400" y="120" width="105" height="530" as="geometry" />
        </mxCell>
        <mxCell id="kmw4Is8DG7LzNqc9Qjcl-4" value="写数据库&lt;br&gt;stock = 6" style="rounded=0;whiteSpace=wrap;html=1;strokeWidth=2;fillColor=#CC99FF;" vertex="1" parent="kmw4Is8DG7LzNqc9Qjcl-0">
          <mxGeometry x="-5" y="360" width="110" height="40" as="geometry" />
        </mxCell>
        <mxCell id="kmw4Is8DG7LzNqc9Qjcl-5" value="删除缓存" style="rounded=0;whiteSpace=wrap;html=1;strokeWidth=2;fillColor=#CC99FF;" vertex="1" parent="kmw4Is8DG7LzNqc9Qjcl-0">
          <mxGeometry x="-5" y="420" width="110" height="40" as="geometry" />
        </mxCell>
        <mxCell id="kmw4Is8DG7LzNqc9Qjcl-1" value="线程3" style="shape=umlLifeline;perimeter=lifelinePerimeter;whiteSpace=wrap;html=1;container=1;collapsible=0;recursiveResize=0;outlineConnect=0;strokeWidth=2;fillColor=#66FF66;" vertex="1" parent="6ijoCn3SMTlXJEN42yO7-1">
          <mxGeometry x="640" y="120" width="107.5" height="530" as="geometry" />
        </mxCell>
        <mxCell id="kmw4Is8DG7LzNqc9Qjcl-6" value="查缓存(空)" style="rounded=0;whiteSpace=wrap;html=1;strokeWidth=2;fillColor=#CC99FF;" vertex="1" parent="kmw4Is8DG7LzNqc9Qjcl-1">
          <mxGeometry x="-5" y="240" width="110" height="40" as="geometry" />
        </mxCell>
        <mxCell id="kmw4Is8DG7LzNqc9Qjcl-7" value="查数据库&lt;br&gt;stock = 10" style="rounded=0;whiteSpace=wrap;html=1;strokeWidth=2;fillColor=#CC99FF;" vertex="1" parent="kmw4Is8DG7LzNqc9Qjcl-1">
          <mxGeometry x="-5" y="310" width="110" height="40" as="geometry" />
        </mxCell>
        <mxCell id="kmw4Is8DG7LzNqc9Qjcl-8" value="更新缓存&lt;br&gt;stock = 10" style="rounded=0;whiteSpace=wrap;html=1;strokeWidth=2;fillColor=#CC6600;" vertex="1" parent="kmw4Is8DG7LzNqc9Qjcl-1">
          <mxGeometry x="-2.5" y="470" width="110" height="40" as="geometry" />
        </mxCell>
      </root>
    </mxGraphModel>
  </diagram>
</mxfile>
